<svg xmlns="http://www.w3.org/2000/svg" viewBox="0 0 128 128" fill="none">
  <rect width="128" height="128" rx="32" fill="#0B1719" />
  <path d="M28 24h72v20H28z" fill="#D5BA8A" opacity=".9" />
  <path d="M34 40h60c5.523 0 10 4.477 10 10v42c0 6.627-5.373 12-12 12H36c-6.627 0-12-5.373-12-12V50c0-5.523 4.477-10 10-10Z" fill="#122B2F" stroke="#D5BA8A" stroke-width="6" />
  <path d="M42 18a4 4 0 0 1 4 4v18h-8V22a4 4 0 0 1 4-4Zm44 0a4 4 0 0 1 4 4v18h-8V22a4 4 0 0 1 4-4Z" fill="#F3EEE5" />
  <path d="M42 64h16v16H42zm28 0h16v16H70z" fill="#D5BA8A" />
  <circle cx="92" cy="94" r="10" fill="#9AD6CC" />
</svg>
